<svg xmlns="http://www.w3.org/2000/svg" viewBox="0 0 1600 250" width="1600" height="250">
  <defs>
    <linearGradient id="bg" x1="0" y1="0" x2="1" y2="1">
      <stop offset="0" stop-color="#f6efe4"/>
      <stop offset="1" stop-color="#e9dbc2"/>
    </linearGradient>
  </defs>
  <rect width="1600" height="250" fill="url(#bg)"/>
<g>
    <path d="M 540 40 H 650 V 66 A 14 14 0 0 0 650 94 V 120 H 540 V 94 A 14 14 0 0 0 540 66 Z"
      fill="#fffdf8" stroke="#8a5c13" stroke-width="5"/>
    <line x1="608.2" y1="54" x2="608.2" y2="106" stroke="#8a5c13" stroke-width="3" stroke-dasharray="2 8" opacity="0.6"/>
    <text x="574.1" y="88.84" font-family="ui-monospace, monospace" font-size="26" font-weight="700" text-anchor="middle" fill="#8a5c13">01</text>
  </g>
<g>
    <path d="M 664 40 H 774 V 66 A 14 14 0 0 0 774 94 V 120 H 664 V 94 A 14 14 0 0 0 664 66 Z"
      fill="#fffdf8" stroke="#8a5c13" stroke-width="5"/>
    <line x1="732.2" y1="54" x2="732.2" y2="106" stroke="#8a5c13" stroke-width="3" stroke-dasharray="2 8" opacity="0.6"/>
    <text x="698.1" y="88.84" font-family="ui-monospace, monospace" font-size="26" font-weight="700" text-anchor="middle" fill="#8a5c13">02</text>
  </g>
<g>
    <path d="M 788 40 H 898 V 66 A 14 14 0 0 0 898 94 V 120 H 788 V 94 A 14 14 0 0 0 788 66 Z"
      fill="#fffdf8" stroke="#8a5c13" stroke-width="5"/>
    <line x1="856.2" y1="54" x2="856.2" y2="106" stroke="#8a5c13" stroke-width="3" stroke-dasharray="2 8" opacity="0.6"/>
    <text x="822.1" y="88.84" font-family="ui-monospace, monospace" font-size="26" font-weight="700" text-anchor="middle" fill="#8a5c13">03</text>
  </g>
<g>
    <path d="M 912 40 H 1022 V 66 A 14 14 0 0 0 1022 94 V 120 H 912 V 94 A 14 14 0 0 0 912 66 Z"
      fill="#fffdf8" stroke="#8a5c13" stroke-width="5"/>
    <line x1="980.2" y1="54" x2="980.2" y2="106" stroke="#8a5c13" stroke-width="3" stroke-dasharray="2 8" opacity="0.6"/>
    <text x="946.1" y="88.84" font-family="ui-monospace, monospace" font-size="26" font-weight="700" text-anchor="middle" fill="#8a5c13">04</text>
  </g>
<g>
    <rect x="540" y="150" width="462" height="30" rx="15" fill="#fffdf8" stroke="#6b6154" stroke-width="5"/>
    <rect x="540" y="150" width="462.0" height="30" rx="15" fill="#b97d1c"/>
    <line x1="655.5" y1="150" x2="655.5" y2="180" stroke="#6b6154" stroke-width="2" opacity="0.3"/><line x1="771.0" y1="150" x2="771.0" y2="180" stroke="#6b6154" stroke-width="2" opacity="0.3"/><line x1="886.5" y1="150" x2="886.5" y2="180" stroke="#6b6154" stroke-width="2" opacity="0.3"/>
    <circle cx="1002.0" cy="165" r="31" fill="#8a5c13" stroke="#fffdf8" stroke-width="6"/>
  </g>
</svg>
