<svg xmlns="http://www.w3.org/2000/svg" viewBox="0 0 1600 250" width="1600" height="250">
  <defs>
    <linearGradient id="bg" x1="0" y1="0" x2="1" y2="1">
      <stop offset="0" stop-color="#f6efe4"/>
      <stop offset="1" stop-color="#e9dbc2"/>
    </linearGradient>
  </defs>
  <rect width="1600" height="250" fill="url(#bg)"/>
<g>
    <circle cx="650" cy="125" r="72" fill="#fffdf8" stroke="#6b6154" stroke-width="12"/>
    <line x1="650.0" y1="79.0" x2="650.0" y2="59.0" stroke="#6b6154" stroke-width="6" stroke-linecap="round"/><line x1="678.0" y1="76.5" x2="683.0" y2="67.8" stroke="#6b6154" stroke-width="3.5" stroke-linecap="round"/><line x1="698.5" y1="97.0" x2="707.2" y2="92.0" stroke="#6b6154" stroke-width="3.5" stroke-linecap="round"/><line x1="696.0" y1="125.0" x2="716.0" y2="125.0" stroke="#6b6154" stroke-width="6" stroke-linecap="round"/><line x1="698.5" y1="153.0" x2="707.2" y2="158.0" stroke="#6b6154" stroke-width="3.5" stroke-linecap="round"/><line x1="678.0" y1="173.5" x2="683.0" y2="182.2" stroke="#6b6154" stroke-width="3.5" stroke-linecap="round"/><line x1="650.0" y1="171.0" x2="650.0" y2="191.0" stroke="#6b6154" stroke-width="6" stroke-linecap="round"/><line x1="622.0" y1="173.5" x2="617.0" y2="182.2" stroke="#6b6154" stroke-width="3.5" stroke-linecap="round"/><line x1="601.5" y1="153.0" x2="592.8" y2="158.0" stroke="#6b6154" stroke-width="3.5" stroke-linecap="round"/><line x1="604.0" y1="125.0" x2="584.0" y2="125.0" stroke="#6b6154" stroke-width="6" stroke-linecap="round"/><line x1="601.5" y1="97.0" x2="592.8" y2="92.0" stroke="#6b6154" stroke-width="3.5" stroke-linecap="round"/><line x1="622.0" y1="76.5" x2="617.0" y2="67.8" stroke="#6b6154" stroke-width="3.5" stroke-linecap="round"/>
    <line x1="650" y1="125" x2="669.8" y2="98.4" stroke="#8a5c13" stroke-width="10" stroke-linecap="round"/>
    <line x1="650" y1="125" x2="699.8" y2="147.8" stroke="#b97d1c" stroke-width="8" stroke-linecap="round"/>
    <circle cx="650" cy="125" r="11" fill="#8a5c13"/>
  </g>
<g><circle cx="770" cy="125" r="27" fill="#b97d1c" stroke="#b97d1c" stroke-width="5"/><text x="770" y="133" font-family="ui-monospace, monospace" font-size="23" font-weight="700" text-anchor="middle" fill="#fffdf8">3</text><circle cx="825" cy="125" r="27" fill="#fffdf8" stroke="#6b6154" stroke-width="5"/><text x="825" y="133" font-family="ui-monospace, monospace" font-size="23" font-weight="700" text-anchor="middle" fill="#6b6154">2</text><circle cx="880" cy="125" r="27" fill="#fffdf8" stroke="#6b6154" stroke-width="5"/><text x="880" y="133" font-family="ui-monospace, monospace" font-size="23" font-weight="700" text-anchor="middle" fill="#6b6154">1</text></g>
</svg>
