<svg xmlns="http://www.w3.org/2000/svg" viewBox="0 0 1600 250" width="1600" height="250">
  <defs>
    <linearGradient id="bg" x1="0" y1="0" x2="1" y2="1">
      <stop offset="0" stop-color="#f6efe4"/>
      <stop offset="1" stop-color="#e9dbc2"/>
    </linearGradient>
  </defs>
  <rect width="1600" height="250" fill="url(#bg)"/>
<g><g>
    <circle cx="650" cy="125" r="62" fill="#fffdf8" stroke="#6b6154" stroke-width="12"/>
    <line x1="650.0" y1="89.0" x2="650.0" y2="69.0" stroke="#6b6154" stroke-width="6" stroke-linecap="round"/><line x1="673.0" y1="85.2" x2="678.0" y2="76.5" stroke="#6b6154" stroke-width="3.5" stroke-linecap="round"/><line x1="689.8" y1="102.0" x2="698.5" y2="97.0" stroke="#6b6154" stroke-width="3.5" stroke-linecap="round"/><line x1="686.0" y1="125.0" x2="706.0" y2="125.0" stroke="#6b6154" stroke-width="6" stroke-linecap="round"/><line x1="689.8" y1="148.0" x2="698.5" y2="153.0" stroke="#6b6154" stroke-width="3.5" stroke-linecap="round"/><line x1="673.0" y1="164.8" x2="678.0" y2="173.5" stroke="#6b6154" stroke-width="3.5" stroke-linecap="round"/><line x1="650.0" y1="161.0" x2="650.0" y2="181.0" stroke="#6b6154" stroke-width="6" stroke-linecap="round"/><line x1="627.0" y1="164.8" x2="622.0" y2="173.5" stroke="#6b6154" stroke-width="3.5" stroke-linecap="round"/><line x1="610.2" y1="148.0" x2="601.5" y2="153.0" stroke="#6b6154" stroke-width="3.5" stroke-linecap="round"/><line x1="614.0" y1="125.0" x2="594.0" y2="125.0" stroke="#6b6154" stroke-width="6" stroke-linecap="round"/><line x1="610.2" y1="102.0" x2="601.5" y2="97.0" stroke="#6b6154" stroke-width="3.5" stroke-linecap="round"/><line x1="627.0" y1="85.2" x2="622.0" y2="76.5" stroke="#6b6154" stroke-width="3.5" stroke-linecap="round"/>
    <line x1="650" y1="125" x2="658.1" y2="97.7" stroke="#8a5c13" stroke-width="10" stroke-linecap="round"/>
    <line x1="650" y1="125" x2="686.9" y2="95.7" stroke="#6b6154" stroke-width="8" stroke-linecap="round"/>
    <circle cx="650" cy="125" r="11" fill="#8a5c13"/>
  </g><g>
    <circle cx="950" cy="125" r="62" fill="#fffdf8" stroke="#b97d1c" stroke-width="12"/>
    <line x1="950.0" y1="89.0" x2="950.0" y2="69.0" stroke="#6b6154" stroke-width="6" stroke-linecap="round"/><line x1="973.0" y1="85.2" x2="978.0" y2="76.5" stroke="#6b6154" stroke-width="3.5" stroke-linecap="round"/><line x1="989.8" y1="102.0" x2="998.5" y2="97.0" stroke="#6b6154" stroke-width="3.5" stroke-linecap="round"/><line x1="986.0" y1="125.0" x2="1006.0" y2="125.0" stroke="#6b6154" stroke-width="6" stroke-linecap="round"/><line x1="989.8" y1="148.0" x2="998.5" y2="153.0" stroke="#6b6154" stroke-width="3.5" stroke-linecap="round"/><line x1="973.0" y1="164.8" x2="978.0" y2="173.5" stroke="#6b6154" stroke-width="3.5" stroke-linecap="round"/><line x1="950.0" y1="161.0" x2="950.0" y2="181.0" stroke="#6b6154" stroke-width="6" stroke-linecap="round"/><line x1="927.0" y1="164.8" x2="922.0" y2="173.5" stroke="#6b6154" stroke-width="3.5" stroke-linecap="round"/><line x1="910.2" y1="148.0" x2="901.5" y2="153.0" stroke="#6b6154" stroke-width="3.5" stroke-linecap="round"/><line x1="914.0" y1="125.0" x2="894.0" y2="125.0" stroke="#6b6154" stroke-width="6" stroke-linecap="round"/><line x1="910.2" y1="102.0" x2="901.5" y2="97.0" stroke="#6b6154" stroke-width="3.5" stroke-linecap="round"/><line x1="927.0" y1="85.2" x2="922.0" y2="76.5" stroke="#6b6154" stroke-width="3.5" stroke-linecap="round"/>
    <line x1="950" y1="125" x2="976.1" y2="113.4" stroke="#8a5c13" stroke-width="10" stroke-linecap="round"/>
    <line x1="950" y1="125" x2="929.1" y2="167.3" stroke="#b97d1c" stroke-width="8" stroke-linecap="round"/>
    <circle cx="950" cy="125" r="11" fill="#8a5c13"/>
  </g></g>
  <text x="650" y="47" font-family="ui-monospace, monospace" font-size="19" font-weight="600" letter-spacing="0.06em" text-anchor="middle" fill="#6b6154">EXPECTED</text>
  <text x="950" y="47" font-family="ui-monospace, monospace" font-size="19" font-weight="600" letter-spacing="0.06em" text-anchor="middle" fill="#b97d1c">ACTUAL</text>
</svg>
